<svg width="39" height="28" viewBox="0 0 39 28" fill="none" xmlns="http://www.w3.org/2000/svg">
  <path opacity="0.8" d="M11.4958 6.91975L15.3463 0L19.1829 6.91975H11.4958Z" fill="#A4CD81"/>
  <path d="M19.1829 6.91975L23.0334 0L26.8699 6.91975H19.1829Z" fill="#7CB74B"/>
  <path opacity="0.8" d="M26.8837 6.91975L30.7203 0L34.5708 6.91975H26.8837Z" fill="#D1E6C0"/>
  <path d="M15.3464 0L19.1829 6.91975L23.0334 0H15.3464Z" fill="#89BE5D"/>
  <path opacity="0.8" d="M23.0334 0L26.87 6.91975L30.7205 0H23.0334Z" fill="#7CB74B"/>
  <path opacity="0.8" d="M7.6452 13.8535L11.4957 6.9198L15.3323 13.8535H7.6452Z" fill="#4E8712"/>
  <path opacity="0.2" d="M23.0334 13.8535L26.87 6.9198L30.7205 13.8535H23.0334Z" fill="white"/>
  <path opacity="0.2" d="M30.7202 13.8535L34.5707 6.9198L38.4212 13.8535H30.7202Z" fill="white"/>
  <path opacity="0.8" d="M11.4958 6.9198L15.3323 13.8535L19.1829 6.9198H11.4958Z" fill="#89BE5D"/>
  <path opacity="0.12" d="M26.8699 6.9198L30.7204 13.8535L34.571 6.9198H26.8699Z" fill="white"/>
  <path d="M11.4958 20.7733L15.3463 27.693L19.1829 20.7733H11.4958Z" fill="#96C56F"/>
  <path opacity="0.9" d="M19.1829 20.7733L23.0334 27.693L26.8699 20.7733H19.1829Z" fill="#96C56F"/>
  <path opacity="0.8" d="M26.8837 20.7733L30.7203 27.693L34.5708 20.7733H26.8837Z" fill="#7CB74B"/>
  <path opacity="0.8" d="M15.3464 27.693L19.1829 20.7733L23.0334 27.693H15.3464Z" fill="#5C9922"/>
  <path opacity="0.8" d="M23.0334 27.693L26.87 20.7733L30.7205 27.693H23.0334Z" fill="#9DC978"/>
  <path d="M7.6452 13.8535L11.4957 20.7733L15.3323 13.8535H7.6452Z" fill="#96C56F"/>
  <path opacity="0.3" d="M15.3464 13.8535L19.1829 20.7733L23.0334 13.8535H15.3464Z" fill="#C4DD80"/>
  <path opacity="0.8" d="M23.0334 13.8535L26.87 20.7733L30.7205 13.8535H23.0334Z" fill="#E5F1DB"/>
  <path opacity="0.12" d="M30.7202 13.8535L34.5707 20.7733L38.4212 13.8535H30.7202Z" fill="white"/>
  <path opacity="0.8" d="M11.4958 20.7733L15.3323 13.8535L19.1829 20.7733H11.4958Z" fill="#9DC978"/>
  <path d="M19.1829 20.7733L23.0334 13.8535L26.8839 20.7733H19.1829Z" fill="#F2F8ED"/>
  <path opacity="0.5" d="M26.8699 20.7733L30.7204 13.8535L34.571 20.7733H26.8699Z" fill="#BFE077"/>
  <path opacity="0.8" d="M3.85059 7.24077L7.7011 0.307068L11.5377 7.24077H3.85059Z" fill="#F2F8ED"/>
  <path opacity="0.8" d="M7.70087 0.307068L11.5374 7.24077L15.3879 0.307068H7.70087Z" fill="#E5F1DB"/>
  <path opacity="0.8" d="M0 14.1605L3.85051 7.24072L7.70101 14.1605H0Z" fill="#E5F1DB"/>
  <path opacity="0.4" d="M3.85059 7.24072L7.7011 14.1605L11.5377 7.24072H3.85059Z" fill="#C4DD80"/>
  <path opacity="0.8" d="M3.85059 21.0803L7.7011 28L11.5377 21.0803H3.85059Z" fill="#F2F8ED"/>
  <path opacity="0.8" d="M7.70087 28L11.5374 21.0803L15.3879 28H7.70087Z" fill="#E5F1DB"/>
  <path opacity="0.8" d="M0 14.1605L3.85051 21.0803L7.70101 14.1605H0Z" fill="#F2F8ED"/>
  <path opacity="0.3" d="M3.85059 21.0803L7.7011 14.1605L11.5377 21.0803H3.85059Z" fill="#AEC663"/>
</svg>
